# xmcd CD database file
#
# Track frame offsets:
#	150
#	18369
#	87795
#	112605
#	148926
#	194069
#
# Disc length: 2990 seconds
#
# Revision: 0
# Processed by: cddbd v1.5.1PL2 Copyright (c) Steve Scherf et al.
# Submitted via: CDex 1.51
#
DISCID=490bac06
DTITLE=Charlie Haden - Carla Bley - The Ballad Of The Fallen
DYEAR=1982
DGENRE=Jazz
TTITLE0=Els Segadors
TTITLE1=The Ballad Of The Fallen - If You Want to Write  Me -  Grandola Vila Morena - Introduction To People - The People United Will Never Be  Defeated
TTITLE2=Silence
TTITLE3=Too Late
TTITLE4=La Pasionaria
TTITLE5=La Santa Espina
EXTD=YEAR: 1982
EXTT0=
EXTT1=
EXTT2=
EXTT3=
EXTT4=
EXTT5=
PLAYORDER=
